<svg id="Layer_1" data-name="Layer 1" xmlns="http://www.w3.org/2000/svg" xmlns:xlink="http://www.w3.org/1999/xlink" viewBox="0 0 1920 1080"><defs><style>.cls-1,.cls-13,.cls-14{fill:none;}.cls-2{fill:#b8d6f2;}.cls-3{opacity:0.27;fill:url(#New_Pattern);}.cls-4{font-size:42.44px;}.cls-4,.cls-9{fill:#0067c2;font-family:DINNextLTW23-Bold2, DIN Next LT W23;font-weight:700;}.cls-5{letter-spacing:-0.07em;}.cls-6{letter-spacing:-0.02em;}.cls-7{letter-spacing:0em;}.cls-8{letter-spacing:0em;}.cls-9{font-size:178.67px;}.cls-10{fill:#fea75f;}.cls-11{fill:#b8dff8;}.cls-12{fill:#8fbee7;}.cls-13{stroke:#b8d6f2;stroke-width:14.77px;}.cls-13,.cls-14{stroke-miterlimit:10;}.cls-14{stroke:#0065c2;stroke-width:29.54px;}.cls-15{fill:#00aaf4;}.cls-16{fill:#0080db;}.cls-17{fill:#abdcf2;}.cls-18{fill:#0065c2;}.cls-19{fill:#fc7e16;}.cls-20{fill:#0569bd;}.cls-21{fill:#529ada;}.cls-22{fill:#ffa800;}.cls-23{fill:#f37000;}.cls-24{fill:#3885ca;}.cls-25{fill:#e6900c;}.cls-26{fill:#043059;}.cls-27{fill:#4190d7;}.cls-28{fill:#4e4d4d;}</style><pattern id="New_Pattern" data-name="New Pattern" width="557.26" height="418.72" patternUnits="userSpaceOnUse" viewBox="0 0 557.26 418.72"><rect class="cls-1" width="557.26" height="418.72"/><path class="cls-2" d="M327.66,224.84H309.35V206.53h-16v18.31H275v16h18.31v18.32h16V240.86h18.31Z"/><path class="cls-2" d="M52.65,154.59H34.34V136.28h-16v18.31H0v16H18.31v18.31h16V170.62H52.65Z"/><path class="cls-2" d="M380.3,72.52H362V54.21H346V72.52H327.66v16H346v18.31h16V88.55H380.3Z"/><path class="cls-2" d="M285.3,384.38H267V366.07H251v18.31H232.65v16H251v18.31h16V400.41H285.3Z"/><path class="cls-2" d="M385.32,335.86h18.32c0-7.9,18.31-13.16,18.31-30.22,0-14.88-13.05-22.89-26.1-22.89-12.7,0-23.8,6.64-28.84,18.43l15.8,9c2.29-5.38,6.06-9.61,12.36-9.61,5.84,0,8.47,2.63,8.47,6.63C403.64,317.32,385.32,322.47,385.32,335.86Zm9.16,30.21a10.87,10.87,0,1,0-10.87-10.87A10.94,10.94,0,0,0,394.48,366.07Z"/><path class="cls-2" d="M448.79,53.11H467.1c0-7.9,18.31-13.17,18.31-30.22C485.41,8,472.36,0,459.32,0c-12.71,0-23.81,6.64-28.85,18.43l15.8,9c2.29-5.38,6.07-9.62,12.36-9.62,5.84,0,8.47,2.64,8.47,6.64C467.1,34.56,448.79,39.71,448.79,53.11Zm9.15,30.21a10.87,10.87,0,1,0-10.87-10.87A10.94,10.94,0,0,0,457.94,83.32Z"/><path class="cls-2" d="M158.17,244.3h18.31c0-7.9,18.32-13.16,18.32-30.22,0-14.88-13.05-22.89-26.1-22.89-12.7,0-23.8,6.64-28.84,18.43l15.8,9c2.28-5.38,6.06-9.61,12.36-9.61,5.83,0,8.46,2.63,8.46,6.63C176.48,225.76,158.17,230.91,158.17,244.3Zm9.16,30.21a10.87,10.87,0,1,0-10.87-10.87A10.94,10.94,0,0,0,167.33,274.51Z"/><path class="cls-2" d="M549.19,140.44l2.06-12.59h-12l2.86-17.17h-13l-2.86,17.17H515.66l2.86-17.17h-13l-2.86,17.17H490.36l-2.06,12.59h12.25l-1.6,9.15H486.81l-2.05,12.59h12.13L494,179.35h13l2.86-17.17h10.53l-2.86,17.17h13l2.86-17.17h12.25l1.94-12.59H535.57l1.6-9.15Zm-26.67,9.15H512l1.6-9.15h10.53Z"/><path class="cls-2" d="M237.51,48.53l2.06-12.59h-12l2.86-17.17h-13l-2.86,17.17H204l2.86-17.17H193.79l-2.86,17.17H178.68l-2.06,12.59h12.25l-1.6,9.15H175.14l-2.06,12.59h12.13l-2.86,17.17h13l2.87-17.17h10.53l-2.87,17.17H219l2.86-17.17h12.25L236,57.68H223.89l1.61-9.15Zm-26.66,9.15H200.32l1.6-9.15h10.53Z"/><path class="cls-2" d="M83.83,315.26l2.07-12.59h-12l2.86-17.17h-13l-2.86,17.17H50.3l2.86-17.17h-13l-2.86,17.17H25L23,315.26H35.19l-1.6,9.15H21.46L19.4,337H31.53l-2.86,17.17h13L44.58,337H55.11l-2.86,17.17h13L68.15,337H80.4l1.95-12.59H70.21l1.61-9.15Zm-26.66,9.15H46.64l1.6-9.15H58.77Z"/><path class="cls-2" d="M555.2,288.93l2.06-12.59h-12l2.86-17.16H535.06l-2.86,17.16H521.67l2.86-17.16h-13l-2.86,17.16H496.37l-2.06,12.59h12.25l-1.6,9.16H492.83l-2.06,12.59H502.9L500,327.85h13L516,310.68h10.52l-2.86,17.17h13l2.86-17.17h12.25l1.94-12.59H541.58l1.61-9.16Zm-26.66,9.16H518l1.61-9.16h10.53Z"/></pattern></defs><title>error</title><rect class="cls-3" y="0.24" width="1920" height="1079.52"/><text class="cls-4" transform="translate(887.62 856.82)">Sorr<tspan class="cls-5" x="83.9" y="0">y</tspan><tspan class="cls-6" x="102.61" y="0">,</tspan><tspan x="-82.79" y="49.67">page not </tspan><tspan class="cls-7" x="88.44" y="49.67">f</tspan><tspan class="cls-8" x="102.74" y="49.67">ound</tspan></text><text class="cls-9" transform="translate(814.04 270.42)">404</text><path class="cls-10" d="M1175.72,709.21c-1.31,1.93-5,1.68-6.93,1.33-2.33-.43-4.4-2-6.18-3.36A196.22,196.22,0,0,1,1146,693.35c-2.59-2.51-5.84-4.52-7.9-7.43-.45-.64-.31-3.14-.32-3.94,0-1.29,1.46-1.17,2.52-1.11,5.93.33,11.17,3.76,16,6.89,1.85,1.2,3.43,2.72,5.28,3.94a68.79,68.79,0,0,1,8.22,6,26.28,26.28,0,0,1,5.12,6.42c.64,1.14,1.53,2.72,1.28,4.14C1176.08,709.19,1175.52,709.73,1175.72,709.21Z"/><path class="cls-10" d="M1139.5,688.3c-1.4-1-1.69-2.89-2-4.47-1.21-5.2-1.52-10.64-2-16-.42-4.4.17-8.9-.66-13.34-.78-4.15-2.72-8.16-3.11-12.41-.22-2.34-.22-6,1-8.53a1.62,1.62,0,0,1,2.63-.35,5.82,5.82,0,0,1,.9,1.21c.5,1,.51,2.59.84,3.7.63,2.13,1.65,4.34,2.08,6.48a12.88,12.88,0,0,0,.14-4.22.4.4,0,0,1,.79-.14,39,39,0,0,1,1.45,6.19c.26,2.1-.88,4.86-.68,7,.34,3.75,1.87,6.49,2.81,10.14,1.56,6,4.38,12.52,3.72,18.89-.16,1.59.24,4.29-1.12,5.48C1145.3,688.76,1140.92,689.35,1139.5,688.3Z"/><path class="cls-11" d="M1182.66,699.94c-1.26-1.09-3.44-1-5.11-1.59a30.64,30.64,0,0,1-6.45-2.89c-1.06-.65-2-1.36-3.15-1.9a23.54,23.54,0,0,1-3.34-1.56c-.9-.62-1.54-1.57-2.56-.85s-1.63,1.63-2.52,2.37a14.17,14.17,0,0,0-4,4.69c-.63,1.35-.75,2.76-1.25,4.11,1.2.72,2.14,1.79,3.34,2.52a27.84,27.84,0,0,1,4.54,3.07,21.66,21.66,0,0,1,2.86,3.35c1.45,2,1.17,3.7,1,6.06-.23,3.83-1.3,7.67-1.31,11.51.65-.42,1.21-1.12,1.89-1.58,1-.71,2.36-1.06,3.29-2,1.9-1.81,2-5,2.59-7.4,1-4.1,2.33-8.09,5.27-11.21a21,21,0,0,0,3.23-4.31,22.16,22.16,0,0,1,1.61-2.61C1182.48,700.14,1182.3,700.5,1182.66,699.94Z"/><path class="cls-10" d="M714,629c.06-.52.13-1,.22-1.55.69-4.17,1.16-8.4,2.71-12.36.7-1.78,1.61-3.48,2.16-5.31a8.19,8.19,0,0,0-.05-5.61,12.14,12.14,0,0,0-2.3,5.7,95.7,95.7,0,0,1,.8-13.43,1.17,1.17,0,0,0-1.15.11,16,16,0,0,0-4.77,3.58,7.58,7.58,0,0,0-1.56,2.4,7.94,7.94,0,0,0-.32,3.07c.16,2.87,1.43,6.16.48,8.88a19.69,19.69,0,0,1-1.5,4.27q-2.54,4.93-5,9.88c-1.87,3.71-6.25,12.47-4.29,16.85,1.1,2.44,2.69,3.62,5.33,3.25s4-2.71,5.21-5.12A57.75,57.75,0,0,0,714,629Z"/><path class="cls-10" d="M702,691.21a14.79,14.79,0,0,0,1.36-3.88c3.24-13,5.74-26.42,4.94-40a11.36,11.36,0,0,0-.88-4.33,5,5,0,0,0-3.55-2.84,4.58,4.58,0,0,0-4.06,1.62,10.92,10.92,0,0,0-1.92,3.84,118.43,118.43,0,0,0-6.5,36.46c0,2.92.12,6,1.89,8.58,1,1.41,2.87,3,4.75,3.18S701.27,692.54,702,691.21Z"/><path class="cls-12" d="M704.63,689.41a24.35,24.35,0,0,0,1.83-4.84c.4-1.31.79-2.62,1.19-3.93s.71-2.38,1-3.59.39-2.41.54-3.62l.75-6.22a34.49,34.49,0,0,0-22.21-.7,69.59,69.59,0,0,0,.08,9.9,27.76,27.76,0,0,0,2.1,9.42,17,17,0,0,0,6.7,7.34C699.67,694.91,703.21,692,704.63,689.41Z"/><path class="cls-13" d="M-71.69,856.55c45.71-4.91,487.56,34.77,535.61,33.69,116-2.61,215.27-33.69,215.27-33.69"/><path class="cls-14" d="M568.79,523.8c-101.17,0-170.27-64.16-267.74-71.57S54.28,558.35-79,575.62-399.78,462-529.33,462"/><path class="cls-15" d="M771.58,527.65l7-128.47H719.78c-35.16,0-51,63.85-86.06,82.51-29.12,15.52-54.6,15.85-69.4,15.85s-15.89,27.18-15.89,27.18,1.08,27.18,15.89,27.18,40.28.33,69.4,15.85c35,18.67,50.9,82.52,86.06,82.52h58.76l-7.46-122.62Z"/><path class="cls-16" d="M847,524.72c0-44-6.24-83.57-16.19-111.14V373.89H797.05c-27.6,0-50,67.53-50,150.83s22.37,150.84,50,150.84h33.78V635.87C840.78,608.29,847,568.71,847,524.72Z"/><ellipse class="cls-17" cx="828.51" cy="524.72" rx="49.97" ry="150.84"/><path class="cls-18" d="M835,468.74c0,10.8-2.9,19.55-6.47,19.55S822,479.54,822,468.74s2.9-19.56,6.48-19.56S835,457.94,835,468.74Z"/><rect class="cls-18" x="828.52" y="449.18" width="106.88" height="39.11"/><circle class="cls-18" cx="938.64" cy="468.74" r="19.55"/><path class="cls-18" d="M835,580.71c0,10.8-2.9,19.55-6.47,19.55S822,591.51,822,580.71s2.9-19.55,6.48-19.55S835,569.91,835,580.71Z"/><rect class="cls-18" x="828.52" y="561.16" width="106.88" height="39.11"/><circle class="cls-18" cx="938.64" cy="580.71" r="19.55"/><path class="cls-13" d="M1256.51,870.54c45.71-4.91,168.73,19.63,216.79,19.7,105.85.16,412.34-108.69,412.34-108.69"/><path class="cls-14" d="M1351.21,523.8c101.17,0,198.22,64.31,295.69,56.91s270.21-94.54,403.47-77.27,249.85,73.75,399-41.49"/><path class="cls-15" d="M1355.68,497.54c-14.8,0-40.28-.33-69.4-15.85-35-18.66-50.9-82.51-86.06-82.51h-58.76l7.89,122.3h-.91l-7,128.8h58.76c35.16,0,51-63.85,86.06-82.52,29.12-15.52,54.6-15.85,69.4-15.85s15.89-27.18,15.89-27.18S1370.49,497.54,1355.68,497.54Z"/><path class="cls-16" d="M1073,524.72c0-44,6.24-83.57,16.19-111.14V373.89H1123c27.6,0,50,67.53,50,150.83s-22.37,150.84-50,150.84h-33.78V635.87C1079.22,608.29,1073,568.71,1073,524.72Z"/><ellipse class="cls-15" cx="1091.49" cy="524.72" rx="49.97" ry="150.84"/><path class="cls-18" d="M1085,468.74c0,10.8,2.9,19.55,6.48,19.55s6.47-8.75,6.47-19.55-2.9-19.56-6.47-19.56S1085,457.94,1085,468.74Z"/><path class="cls-18" d="M1085,580.71c0,10.8,2.9,19.55,6.48,19.55s6.47-8.75,6.47-19.55-2.9-19.55-6.47-19.55S1085,569.91,1085,580.71Z"/><path class="cls-2" d="M818.06,857.3c0,5.76-38.56,10.42-86.13,10.42s-86.13-4.66-86.13-10.42,38.56-10.42,86.13-10.42S818.06,851.55,818.06,857.3Z"/><path class="cls-10" d="M776.75,641.9c.4-.34.79-.69,1.17-1,3.07-2.9,6.32-5.64,8.75-9.15,1.08-1.57,2-3.27,3.2-4.74a8.24,8.24,0,0,1,4.69-3.09,12.25,12.25,0,0,1-3.45,5.09,98.45,98.45,0,0,0,10.71-8.15c.37.15.49.61.55,1a16.11,16.11,0,0,1-.32,5.95,7.39,7.39,0,0,1-1.13,2.64,7.76,7.76,0,0,1-2.36,2c-2.48,1.47-5.91,2.25-7.64,4.56a19.24,19.24,0,0,0-2.71,3.63c-1.79,3.23-3.6,6.45-5.4,9.67-2,3.63-6.87,12.15-11.61,13-2.63.45-4.49-.21-5.66-2.61s0-4.85,1.35-7.18A57.93,57.93,0,0,1,776.75,641.9Z"/><path class="cls-10" d="M773.36,661.67a6,6,0,0,1-.25.58,10.8,10.8,0,0,1-2.84,3.22,124.34,124.34,0,0,1-20.84,14.67,107.67,107.67,0,0,1-10.47,5.1c-2.7,1.13-5.64,2.17-8.66,1.48-1.68-.37-3.88-1.51-4.74-3.19s0-3.45.94-4.67a14.55,14.55,0,0,1,3.07-2.73c10.86-7.91,22.31-15.27,35.19-19.65a11.11,11.11,0,0,1,4.35-.82,5,5,0,0,1,4,2.21A4.5,4.5,0,0,1,773.36,661.67Z"/><path class="cls-10" d="M727.21,662c-.67,1.52-1.7,3.12-3.33,3.45a14.73,14.73,0,0,1-3.44-.22c-.36,0-.73-.1-1.09-.16a11.3,11.3,0,0,1-3.34-.92,16.19,16.19,0,0,1-2.91-4c-.05-.11-.1-.23-.17-.36s-.29-.55-.46-.86a7.62,7.62,0,0,1-1.2-2.79c0-5.1,2.16-6.44,4.06-8.93a16.21,16.21,0,0,1,7.59-5.28,9,9,0,0,1,5.21-.52c1.49.44,1.3,1.52,1.38,2.86C729.85,650.34,729.71,656.34,727.21,662Z"/><path class="cls-10" d="M722.69,673.52a15.78,15.78,0,0,1-14.9,4.51,24.51,24.51,0,0,0-4.53-1c2.15-1.38,3.24-4,3.73-6.45a18.74,18.74,0,0,0-.27-8.49c-.15-.55-1.41-2.92-.83-3.35s3.26.84,4.05.82a7,7,0,0,0,2.53-.63l.4-.18h0a26.54,26.54,0,0,1,2.75-1.19.86.86,0,0,1,1,.22l3.66,3.29a24.7,24.7,0,0,0-.92,3.7c0,.1,0,.19,0,.3a25.29,25.29,0,0,0-.26,3.59,8.88,8.88,0,0,0,0,1,4.8,4.8,0,0,0,.28,1.29A4,4,0,0,0,722.69,673.52Z"/><path class="cls-19" d="M719.35,665.05a25.29,25.29,0,0,0-.26,3.59,8.88,8.88,0,0,0,0,1,6.22,6.22,0,0,1-.92-.82c-.55-.49-1.05-1-1.55-1.52a17.57,17.57,0,0,1-3.19-5.81,11.54,11.54,0,0,1-.55-1.75,3.33,3.33,0,0,1-.06-1h0A51.75,51.75,0,0,0,716.8,663a14.24,14.24,0,0,0,2.6,1.71l.27.14c.25.12.52.22.77.32C720.08,665.17,719.71,665.11,719.35,665.05Z"/><path class="cls-20" d="M715.38,663.56a16.6,16.6,0,0,0,2.7-2.73c1.83-2.49,2.34-5.71,3.87-8.39a12.48,12.48,0,0,1,4.07-4.29,33.26,33.26,0,0,0,4.2-2.62,9,9,0,0,0,2.75-6.81,18.74,18.74,0,0,0-1.81-7.28,6.16,6.16,0,0,1-3.88,1.61c-3.91.53-7.89.18-11.82.55s-8,1.6-10.6,4.61c-2.71,3.18-3.18,7.67-3.26,11.85a28.92,28.92,0,0,0,.41,6.31,17,17,0,0,0,3.49,7.39C708.38,667.3,712.24,666.17,715.38,663.56Z"/><path class="cls-10" d="M722.89,651.52a3.07,3.07,0,0,0-1.26-1.24,1.53,1.53,0,0,0-1.68.2,1.62,1.62,0,0,0-.4,1.29,4.88,4.88,0,0,0,.41,1.33,16.21,16.21,0,0,0,2.3,4.28c.18.22.44.45.71.36a.72.72,0,0,0,.36-.33c0-.38.52-1.06.63-1.47a5.52,5.52,0,0,0,.15-1.72s.06.11-.06.1C723.47,653.66,723.41,652.34,722.89,651.52Z"/><path class="cls-21" d="M700,853.8a7.67,7.67,0,0,0,.05,3.34c.7,2.15,3.23,3.26,5.48,3.06s4.27-1.38,6.2-2.55a55.18,55.18,0,0,0,9-6.41,10.53,10.53,0,0,0,2.55-3.27,4.54,4.54,0,0,0,0-4c-1.08-1.87-3.66-2.34-5.75-1.8s-3.91,1.82-5.87,2.73c-2.66,1.24-4.23,2.17-7,3.23C701.45,849.37,700.47,850.51,700,853.8Z"/><path class="cls-22" d="M696.43,749.58c-.57,7,.67,14,1.69,20.9q1.61,10.92,2.47,21.93a36.69,36.69,0,0,1,.1,6.79c-.38,3.65-1.76,7.11-2.49,10.7-1.26,6.09-.65,12.39,0,18.58l1.23,12.3a56.74,56.74,0,0,0,2,11.53c3.48,1.26,5.42-.14,6.64-1.33a159.13,159.13,0,0,1,5.18-31.86c.88-3.26,1.86-6.5,2.43-9.83a111,111,0,0,0,1-11.39c1-14.52,4.2-29,2.9-43.51a142.31,142.31,0,0,0-2.85-16.63,2.72,2.72,0,0,0-.59-1.39,2.65,2.65,0,0,0-1.58-.6l-8.93-1.36c-1.81-.28-4.19-1.15-5.63.38s-1.69,4.86-2.15,6.79A52.81,52.81,0,0,0,696.43,749.58Z"/><path class="cls-21" d="M729.66,859.72a8.1,8.1,0,0,0-.08,3.53c.65,2.35,3.32,3.66,5.75,3.56s4.68-1.27,6.83-2.41c3.36-1.78,6.72-3.56,9.92-5.62,1.86-1.21,3.74-2.59,4.67-4.6s.57-4.78-1.35-5.89c-2.08-1.2-4.65,0-6.89.88a42.79,42.79,0,0,1-7.51,1.89c-2.58.48-7,.44-9.24,1.74C729.81,853.94,730,857.57,729.66,859.72Z"/><path class="cls-22" d="M713.79,762.52c1.47,2.2,3.24,4.19,4.63,6.44a46.06,46.06,0,0,1,4.14,10c3.05,9.4,6.13,19,6.29,28.87.11,6.93-1.22,13.8-1.39,20.72a124.76,124.76,0,0,0,.66,13.8q.61,7.06,1.21,14.13a19.46,19.46,0,0,0,11.14-2.32c-.65-11.65.59-23.34,2.6-34.84,1-5.55,2.11-11.08,2.61-16.7.92-10.3-.35-20.66-1.63-30.92-1.58-12.74-3.19-25.61-7.64-37.65.3.82-21.38,2.91-23.25,3.1-6.91.69-5,9-4,14A32.14,32.14,0,0,0,713.79,762.52Z"/><path class="cls-23" d="M708.83,791.93a49.44,49.44,0,0,1,1.82,7.06,38.08,38.08,0,0,1-.11,8.4c-.27,3.17-.55,6.34-.82,9.52-.71,8.2-1.32,16.43-2.65,24.56-.54,3.26.58,5.89.93,9.56,3.19-10.35,4.65-20.07,6.62-30.72,2.22-12,2.87-24.21,3.52-36.39.18-3.52.37-7,.56-10.55.09-1.78.16-3.68-.72-5.23s-2.53-2.46-4-3.4c-3.9-2.44-6.4-6-9.81-8.79-1.22,1.62-.1,5.85.06,7.79.26,3.18.56,6.35.95,9.51A115.17,115.17,0,0,0,708.83,791.93Z"/><path class="cls-12" d="M737.63,712.68a59.14,59.14,0,0,0,.56-6.51c0-3.94-1.18-7.77-2.32-11.54q-2.29-7.61-4.6-15.21A27.54,27.54,0,0,0,729.2,674a16.39,16.39,0,0,1-7.43-.47l.35.24a17.52,17.52,0,0,1-12,4.05v0c-.47-.23-1.28-.16-1.87-.42a13.89,13.89,0,0,1-1.56-.85c-.74-.47-1.61-1.5-1.22-2.44a6.57,6.57,0,0,1-4.09,1.43,6.11,6.11,0,0,0-3.65,1,9.58,9.58,0,0,0-2.91,5.72l-.1.3a15.26,15.26,0,0,0-.19,5.72,79.49,79.49,0,0,0,1.83,11.91c.61,2.45,1.42,4.85,1.87,7.33,1.82,10-2.28,20.36-.36,30.33,1.22-.09,2.22.85,3.17,1.61,3.24,2.56,7.52,3.46,11.65,3.56s8.24-.52,12.37-.62c4.7-.12,10,.26,13.5-2.83C737.43,730.62,736.67,721.6,737.63,712.68Z"/><path class="cls-24" d="M728.6,677.45a3.12,3.12,0,0,0-3.91,1.22,8,8,0,0,0-1,4.33c-.18,9,2.5,17.86,3.24,26.86a17.24,17.24,0,0,1-.26,5.69c-.46,1.79-1.41,3.42-2,5.17-1.16,3.43-.88,7.19-.24,10.76s1.65,7.09,1.91,10.71a44.7,44.7,0,0,0,13.09-2.7,1.21,1.21,0,0,0,.68-.46,1.27,1.27,0,0,0,0-.84c-1.72-8.48-1.61-17.22-1-25.85a46.83,46.83,0,0,0,.15-6.59,43.35,43.35,0,0,0-1-6c-1.08-4.77-2.28-9.75-5.5-13.42a43.66,43.66,0,0,1-3.62-4c-1-1.49-1.5-3.5-.62-5.06l1.21,1.83"/><path class="cls-12" d="M723.16,678.36a23.89,23.89,0,0,1,3.54-3.78l3-2.8c.9-.84,1.81-1.69,2.79-2.45s2-1.41,3-2.08l5.26-3.41a34.5,34.5,0,0,1,10.4,19.63,69.08,69.08,0,0,1-8.93,4.29,27.6,27.6,0,0,1-9.38,2.26,17.08,17.08,0,0,1-9.54-2.78C720.41,685.23,721.46,680.77,723.16,678.36Z"/><path class="cls-24" d="M719.61,669.78c.21.22.09.14-.06,0Z"/><path class="cls-2" d="M1276.47,870.54c0,5.76-38.56,10.42-86.12,10.42s-86.13-4.66-86.13-10.42,38.56-10.42,86.13-10.42S1276.47,864.79,1276.47,870.54Z"/><path class="cls-25" d="M1168.16,698.57a7.07,7.07,0,0,0,2.93.41,24,24,0,0,0,5.8-.62c3.18-.81,5.7-2.7,8.48-4.33.83-.48,1.62-1.08,2.46-1.55a5.82,5.82,0,0,0,1.37-.74c-.7-.34-1.59-.1-2.36-.45-2.15-1-3.53-3.34-4.19-5.49-.27-.86-.53-1.75-.76-2.64-.16-.6-.29-1.21-.39-1.81a8.73,8.73,0,0,1-.13-1,8.91,8.91,0,0,1,.26-3.21l.3-.42c-.42,0-.83-.5-1.23-.51-.59,0-1.28.78-1.7,1.13a9.54,9.54,0,0,1-3.72,2.35c-2,.48-4.19,1.16-6.18.77a9.76,9.76,0,0,1,1.28,3.7c0,.15,0,.29.08.43a17.31,17.31,0,0,1,.46,3.73v.11a18.57,18.57,0,0,1-.58,3.79A29.77,29.77,0,0,1,1168.16,698.57Z"/><path class="cls-10" d="M1164.25,664.94c-.25,1.48-1.06,2.71-1.15,4.25a19.32,19.32,0,0,0,.54,6.65,26.29,26.29,0,0,0,7.51,11.41c5,4.37,9.75-4,11-8.11,1-3.54,1.92-8.42-.08-11.76-1.6-2.68-4-5.48-7.11-6.24a10.39,10.39,0,0,0-7.18.88C1166.46,662.77,1165.33,665.07,1164.25,664.94Z"/><path class="cls-26" d="M1180.35,670.92c-3.22-4.26-8-2.72-9.95-3A7.5,7.5,0,0,1,1164,661c-.18-1.84-.45-4.22.12-5.94,1.54.38,2.66,1.19,4.42.85s3.29-1.14,5.23-1.21c3.57-.13,7.7.68,10.12,3.48a19.93,19.93,0,0,1,4.6,13.56c0,1.47-3.94,13.73-6.56,12-.94-.65-.46-5.89-.57-7.1C1181.24,675.07,1180.86,671.6,1180.35,670.92Z"/><path class="cls-26" d="M1166.09,660.45c-3.22-.23-5.24,4.13-5.53,7.11-.27,2.82.78,5.83,1.76,8.42a23.86,23.86,0,0,0,1.9,4c.26.42,1.59,2.84,2.21,2.77,1.15-.12-.57-3.39-.77-3.92a20.74,20.74,0,0,1-1.44-5.55c-.28-2.82-.35-5.63,1-8.23C1166.1,663.2,1166.76,662.39,1166.09,660.45Z"/><path class="cls-10" d="M1180.4,672.93c.37-1,.38-1.85,1.18-2.56.57-.5,1.31-.74,1.9-.06,1.2,1.41-.4,3.37-1.06,4.6-.36.66-.93,1.29-1.25,1.93-.23-.77-.21-1.61-.37-2.38C1180.72,674.07,1180.62,672.88,1180.4,672.93Z"/><path class="cls-27" d="M1198.13,854.52c.83,1.63-.12,4.6.17,6.55s1.63,3.36,2.76,4.92c1.66,2.27,6.41,6.55,5,9.66-1.82,4-6.74,2.32-9.29.39s-3.46-5.41-5.52-7.9c-1.68-2-1.77-3.7-1.25-6.21a49.48,49.48,0,0,0,.58-7.39,30.81,30.81,0,0,1,5,.32C1196.29,854.89,1198.47,855,1198.13,854.52Z"/><path class="cls-27" d="M1176,854.17c.21,2.31-.52,4.77-.08,7.07.37,2,2.18,4.22,1.64,6.39s-3.32,2.23-5.14,2.79a8.86,8.86,0,0,0-4.39,3.41c-2.48,3.18-8.4,4.08-11.52.87-1.41-1.44-1.72-4.11-.21-5.39s4-1.27,5.73-2.29a13,13,0,0,0,6.87-12.83c2.37.19,4.49.61,6.8.28C1175.84,854.73,1175.77,855,1176,854.17Z"/><path class="cls-22" d="M1193.67,744.32c2,.89,3.11,6.07,3.93,8.11a42.66,42.66,0,0,1,2.61,10c1.34,9.48,0,18.89-1,28.3-.4,3.73-1.11,7.45-1.39,11.2a30.17,30.17,0,0,0,2.2,12.38,35.84,35.84,0,0,1,1.89,15.18c-.6,4.33-.19,4.73-.63,9.06-.41,4-.84,8.07-1,12.06-.07,1.53-.25,3-.17,4.53s-.37,3.16-.38,4.73a.5.5,0,0,1-.52.5c-3.38-.09-7.68.06-10.77-.94a.32.32,0,0,1-.23-.28c-.83-7.11-2.19-14.19-3.62-21.22-2.22-10.88-4.23-21.81-6.36-32.71-2-10.17-4-20.57-5.31-30.88a116.64,116.64,0,0,1-.93-14.7c0-2.38,0-4.75.15-7.13.06-1-.23-3.11.62-3.72s4.89-.29,6.22-.41a38.1,38.1,0,0,0,7-1c2.85-.77,5.86-1.67,8.6-2.59C1193.74,744.8,1193,745,1193.67,744.32Z"/><path class="cls-28" d="M1179.9,748.8h.32C1180.1,748.61,1180,748.65,1179.9,748.8Z"/><path class="cls-22" d="M1155.38,779.68c0,10.64,2.07,21.11,4.3,31.47,2.28,10.58,4.14,21.09,5.66,31.81.57,4,.81,8.25,1.61,12.2a11.83,11.83,0,0,0,.68,3c.73,1.12,2.3.69,3.79.69a38,38,0,0,0,4.1.14c1.71-.22,1.87-1.08,2.13-2.82.95-6.61,1-11.71,1.36-16.92.25-4.18.74-7.94.38-12.06,0-.27-.05-.54-.08-.81-.76-6.75-1.76-13.44-2.66-20.15a40.37,40.37,0,0,1-.14-8.22c.23-3.36.71-6.71,1-10.08.93-12.57-.44-25.18,2-37.59a7.08,7.08,0,0,1,.41-1.55c-6.67,0-16.42,4.08-22.29-.62.14,5.36-1.45,10.38-1.71,15.64S1155.38,774.32,1155.38,779.68Z"/><path class="cls-11" d="M1156.42,748.62c.19-5.36.69-10.69.7-16.07,0-5.15.08-10.26.37-15.4a35.74,35.74,0,0,0,.09-6.78,49.23,49.23,0,0,1-.58-6.87c0-2.15-.16-6.6,2.07-7.63,1.7-.79,3.51-1.49,5.2-2.31,1.88-.91,4.32-2.64,6.4-2.86a4,4,0,0,0,.09,1.09l-.07.09c.18,2.49,2.54,3.47,4.71,3.79a8.74,8.74,0,0,0,7.77-2.44,7,7,0,0,0,2-3.32,9.36,9.36,0,0,0,4,.87,9.62,9.62,0,0,0,2.25.76c1.31.5,2.67.89,4,1.35a7.21,7.21,0,0,0,3.78,1.69c.91.5,1.79,1,2.62,1.61a10.55,10.55,0,0,1,.41,1.59c.66,3.44,1.1,6.65-.86,9.62-.86,1.3-5.32,8.53-5.49,9.15a18.67,18.67,0,0,0,0,4.16v.57c0,1.69,0,3.37,0,5.06.05,6.08,1.12,12,2.07,18,.35,2.19.73,4.4,1.2,6.56.08.38.17.75.25,1.12.33,1.38,1,3.33.72,4.75a9.12,9.12,0,0,0-2.28.45c-2.94.66-5.73,2-8.75,2.44a113.37,113.37,0,0,1-14.86.92c-5.43,0-12.07,1.41-16.84-2-1.07-.75-.72-1.88-.72-3.22C1156.66,753.14,1156.34,750.9,1156.42,748.62Z"/><path class="cls-10" d="M1191.33,704.24c1.75,1.55,5.38.23,7.15-.65,2.2-1.11,3.88-3.23,5.31-5.13a218.76,218.76,0,0,0,13.11-18.55c2-3.25,4.7-6.18,6-9.68.3-.77-.42-3.22-.61-4-.29-1.28-1.71-.74-2.74-.38-5.78,2-10.14,6.95-14.17,11.45-1.54,1.73-2.75,3.69-4.29,5.45a75.71,75.71,0,0,0-6.7,8.36,29.33,29.33,0,0,0-3.54,7.87c-.36,1.32-.87,3.16-.3,4.5C1191,704.31,1191.65,704.7,1191.33,704.24Z"/><path class="cls-10" d="M1221.53,671.53c1.42-1,1.74-2.86,2.14-4.43,1.3-5.18,1.7-10.61,2.31-16,.5-4.39,0-8.9.89-13.33.85-4.13,2.86-8.11,3.33-12.35.26-2.34.32-6-.9-8.55a1.61,1.61,0,0,0-2.62-.4,6.64,6.64,0,0,0-.92,1.2c-.52.94-.56,2.58-.9,3.68-.68,2.12-1.73,4.32-2.2,6.45a13.16,13.16,0,0,1-.07-4.22.4.4,0,0,0-.78-.16,37.85,37.85,0,0,0-1.56,6.16c-.3,2.1.79,4.88.56,7-.41,3.75-2,6.46-3,10.1-1.66,6-4.6,12.44-4,18.81.13,1.6-.32,4.29,1,5.5C1215.73,671.89,1220.09,672.56,1221.53,671.53Z"/><path class="cls-28" d="M1154.77,720.09l-.17-.18C1154.56,720.07,1154.61,720.13,1154.77,720.09Z"/><path class="cls-23" d="M1170.22,781.42a66,66,0,0,0,3.11,16.12,43.62,43.62,0,0,1,2.31,12.43c.08,1.82-.23,3.57-.24,5.39a35.69,35.69,0,0,0,.68,6.26,29.91,29.91,0,0,0,1.68,5.58,17.32,17.32,0,0,0,1.56,3.68c0-1.22,0-2.45.07-3.68,0-.27-.05-.54-.08-.81-.76-6.75-1.76-13.44-2.66-20.15a40.37,40.37,0,0,1-.14-8.22,58.6,58.6,0,0,1-1.11-6.92c-.23-2.32-.72-4.64-.81-7s0-5.52-.89-7.53c-.72-1.66-2.82-2.41-4.14-3.44A58,58,0,0,0,1170.22,781.42Z"/><path class="cls-11" d="M1212.64,686.05a24.9,24.9,0,0,0-2.53-2.61l-2.88-2.7a8.37,8.37,0,0,0-1.77-1.31c-.72-.4-2-.64-2.42-1.29-.5.35-1.68,1.63-2.55,2.34a40.5,40.5,0,0,0-3.88,3.3,37.14,37.14,0,0,1-4.56,3.94,15.32,15.32,0,0,1-6.64,3.23c-.36.75-.71,1.51-1.1,2.26a8.89,8.89,0,0,1-1.41,2v.18a24.65,24.65,0,0,1-.33,3.53c-.21,1.25-.68,2.37-.21,3.59,1,2.7,3.06,4.65,5.07,6.64a52.1,52.1,0,0,1,6,7.64c.26.38.5.81.75,1.23a10.22,10.22,0,0,1,.8-3,21.69,21.69,0,0,1,5.7-7.26,2.63,2.63,0,0,1,.68-.36c.86-1.37,1.75-2.74,2.63-4.12,1.53-2.41,2.41-5,3.69-7.43.82-1.6,1.95-2.93,2.85-4.5a34.07,34.07,0,0,1,1.94-3.4C1213.11,687.09,1213.39,687,1212.64,686.05Z"/></svg>