<svg id="Layer_1" data-name="Layer 1" xmlns="http://www.w3.org/2000/svg" viewBox="0 0 260.89 164.21"><defs><style>.cls-1,.cls-2{fill:#fff;}.cls-2{stroke:#fff;stroke-miterlimit:10;stroke-width:5.26px;}</style></defs><title>LW</title><rect class="cls-1" x="166.12" y="89.26" width="13.39" height="16.5"/><rect class="cls-1" x="186.18" y="89.26" width="13.39" height="16.5"/><rect class="cls-1" x="166.12" y="113.51" width="13.39" height="16.5"/><rect class="cls-1" x="186.18" y="113.51" width="13.39" height="16.5"/><path class="cls-1" d="M230.59,125.86l-58-111.31h20.06l68.21,131h-1.11C248,145.53,237,138.12,230.59,125.86Z"/><path class="cls-1" d="M134.72,125.86l58-111.31H68.2L0,145.53H105.52C117.34,145.53,128.34,138.12,134.72,125.86Z"/><polyline class="cls-2" points="202.17 32.02 77.69 32.02 9.48 163"/><rect class="cls-1" x="105.77" width="21.25" height="37.84"/><path class="cls-1" d="M230.59,125.86l-58-111.31h20.06l68.21,131h-1.11C248,145.53,237,138.12,230.59,125.86Z"/></svg>